<?xml version="1.0" encoding="iso-8859-1"?>
<!-- Generator: Adobe Illustrator 19.0.0, SVG Export Plug-In . SVG Version: 6.00 Build 0)  -->
<svg version="1.1" id="Layer_1" xmlns="http://www.w3.org/2000/svg" xmlns:xlink="http://www.w3.org/1999/xlink" x="0px" y="0px"
	 viewBox="0 0 512 512" style="enable-background:new 0 0 512 512;" xml:space="preserve">
<g>
	<g>
		<path d="M237.161,70.942L125.452,10.433c-2.766-1.498-6.102-1.498-8.868,0L4.875,70.942C1.872,72.569,0,75.711,0,79.127V204.8
			c0,3.526,1.992,6.749,5.145,8.326l111.709,55.855c1.311,0.656,2.738,0.983,4.164,0.983s2.852-0.327,4.164-0.983l111.709-55.855
			c3.153-1.577,5.145-4.8,5.145-8.326V79.127C242.036,75.711,240.165,72.569,237.161,70.942z M223.418,199.046l-102.4,51.2
			l-102.4-51.2V84.671l102.4-55.466l102.4,55.466V199.046z"/>
	</g>
</g>
<g>
	<g>
		<path d="M507.125,70.942L395.416,10.433c-2.766-1.498-6.102-1.498-8.868,0L274.839,70.942c-3.004,1.627-4.875,4.769-4.875,8.185
			V204.8c0,3.526,1.992,6.749,5.145,8.326l111.709,55.855c1.311,0.656,2.738,0.983,4.164,0.983s2.852-0.327,4.164-0.983
			l111.709-55.855c3.153-1.577,5.145-4.8,5.145-8.326V79.127C512,75.711,510.128,72.569,507.125,70.942z M493.382,199.046
			l-102.4,51.2l-102.4-51.2V84.671l102.4-55.466l102.4,55.466V199.046z"/>
	</g>
</g>
<g>
	<g>
		<path d="M367.489,303.669L255.78,243.16c-2.766-1.498-6.102-1.498-8.868,0l-111.709,60.509c-3.004,1.627-4.875,4.769-4.875,8.185
			v125.673c0,3.526,1.992,6.749,5.145,8.326l111.709,55.855c1.311,0.656,2.738,0.983,4.164,0.983s2.852-0.327,4.164-0.983
			l111.709-55.855c3.153-1.577,5.145-4.8,5.145-8.326V311.854C372.364,308.438,370.492,305.296,367.489,303.669z M353.745,431.774
			l-102.4,51.2l-102.4-51.2V317.399l102.4-55.466l102.4,55.466V431.774z"/>
	</g>
</g>
<g>
</g>
<g>
</g>
<g>
</g>
<g>
</g>
<g>
</g>
<g>
</g>
<g>
</g>
<g>
</g>
<g>
</g>
<g>
</g>
<g>
</g>
<g>
</g>
<g>
</g>
<g>
</g>
<g>
</g>
</svg>
